<svg width="64" height="64" viewBox="0 0 64 64" fill="none" xmlns="http://www.w3.org/2000/svg">
  <!-- 外圆环 -->
  <circle cx="32" cy="32" r="28" stroke="#00d4ff" stroke-width="3" fill="none" opacity="0.3"/>
  
  <!-- 主表盘 -->
  <circle cx="32" cy="32" r="24" fill="url(#gradient1)" stroke="#00d4ff" stroke-width="2"/>
  
  <!-- 内部圆环 -->
  <circle cx="32" cy="32" r="18" fill="none" stroke="rgba(255,255,255,0.2)" stroke-width="1"/>
  
  <!-- 刻度线 -->
  <g stroke="#ffffff" stroke-width="2" opacity="0.8">
    <!-- 12点方向 -->
    <line x1="32" y1="10" x2="32" y2="14" stroke-width="3"/>
    <!-- 3点方向 -->
    <line x1="54" y1="32" x2="50" y2="32" stroke-width="2"/>
    <!-- 6点方向 -->
    <line x1="32" y1="54" x2="32" y2="50" stroke-width="2"/>
    <!-- 9点方向 -->
    <line x1="10" y1="32" x2="14" y2="32" stroke-width="2"/>
    
    <!-- 其他刻度 -->
    <line x1="21.15" y1="13.64" x2="22.98" y2="16.32" stroke-width="1.5"/>
    <line x1="42.85" y1="13.64" x2="41.02" y2="16.32" stroke-width="1.5"/>
    <line x1="50.36" y1="21.15" x2="47.68" y2="22.98" stroke-width="1.5"/>
    <line x1="50.36" y1="42.85" x2="47.68" y2="41.02" stroke-width="1.5"/>
  </g>
  
  <!-- 指针 -->
  <g transform="rotate(45 32 32)">
    <path d="M32 32 L32 16 L34 18 L32 14 L30 18 Z" fill="#ff4444" stroke="#ffffff" stroke-width="1"/>
    <path d="M32 32 L32 44" stroke="#ff4444" stroke-width="3" stroke-linecap="round"/>
  </g>
  
  <!-- 中心圆点 -->
  <circle cx="32" cy="32" r="3" fill="#ffffff" stroke="#00d4ff" stroke-width="1"/>
  
  <!-- 速度波纹效果 -->
  <g opacity="0.6">
    <path d="M15 45 Q20 40 25 45 T35 45" stroke="#00ff88" stroke-width="2" fill="none"/>
    <path d="M12 48 Q18 42 24 48 T36 48" stroke="#00ff88" stroke-width="1.5" fill="none" opacity="0.7"/>
    <path d="M18 42 Q22 38 26 42 T34 42" stroke="#00ff88" stroke-width="1" fill="none" opacity="0.5"/>
  </g>
  
  <!-- 渐变定义 -->
  <defs>
    <linearGradient id="gradient1" x1="0%" y1="0%" x2="100%" y2="100%">
      <stop offset="0%" style="stop-color:#1a1a2e;stop-opacity:1" />
      <stop offset="50%" style="stop-color:#16213e;stop-opacity:1" />
      <stop offset="100%" style="stop-color:#0c0c0c;stop-opacity:1" />
    </linearGradient>
  </defs>
</svg> 